<svg xmlns="http://www.w3.org/2000/svg" xmlns:xlink="http://www.w3.org/1999/xlink" viewBox="0 0 500 500"><defs><style>.cls-1{fill:#fff;}.cls-2{fill:url(#Безымянный_градиент_71);}.cls-3{fill:url(#Безымянный_градиент_72);}.cls-4{opacity:0.5;fill:url(#Безымянный_градиент_74);}.cls-5{fill:url(#Безымянный_градиент_75);}.cls-6{fill:url(#Безымянный_градиент_76);}</style><linearGradient id="Безымянный_градиент_71" x1="267.12" y1="182.3" x2="305.25" y2="303.5" gradientUnits="userSpaceOnUse"><stop offset="0" stop-color="#5b5b5b"/><stop offset="0.03" stop-color="#555"/><stop offset="0.19" stop-color="#363636"/><stop offset="0.37" stop-color="#1e1e1e"/><stop offset="0.55" stop-color="#0d0d0d"/><stop offset="0.75" stop-color="#030303"/><stop offset="1"/></linearGradient><linearGradient id="Безымянный_градиент_72" x1="349.17" y1="183.85" x2="309.35" y2="307.42" gradientUnits="userSpaceOnUse"><stop offset="0" stop-color="#5b5b5b"/><stop offset="0.19" stop-color="#565656"/><stop offset="0.41" stop-color="#484848"/><stop offset="0.65" stop-color="#303030"/><stop offset="0.9" stop-color="#0f0f0f"/><stop offset="1"/></linearGradient><radialGradient id="Безымянный_градиент_74" cx="145.13" cy="197.89" r="29.65" gradientUnits="userSpaceOnUse"><stop offset="0" stop-color="#5b5b5b"/><stop offset="0.35" stop-color="#595959"/><stop offset="0.54" stop-color="#515151"/><stop offset="0.68" stop-color="#434343"/><stop offset="0.81" stop-color="#303030"/><stop offset="0.92" stop-color="#181818"/><stop offset="1"/></radialGradient><radialGradient id="Безымянный_градиент_75" cx="226.15" cy="225.13" r="63.81" gradientUnits="userSpaceOnUse"><stop offset="0" stop-color="#5b5b5b"/><stop offset="0.41" stop-color="#383838"/><stop offset="1"/></radialGradient><radialGradient id="Безымянный_градиент_76" cx="202.32" cy="171.34" r="48.14" gradientUnits="userSpaceOnUse"><stop offset="0" stop-color="#5b5b5b"/><stop offset="0.04" stop-color="#555"/><stop offset="0.32" stop-color="#303030"/><stop offset="0.59" stop-color="#161616"/><stop offset="0.82" stop-color="#060606"/><stop offset="1"/></radialGradient></defs><title>logo</title><g id="круг"><circle class="cls-1" cx="250" cy="250" r="250"/></g><g id="Слой_4" data-name="Слой 4"><path d="M69.82,323.16a4,4,0,0,1-3.12-1.35,4.52,4.52,0,0,1-1.22-3.15V168.54a12.18,12.18,0,0,1,1.91-7.2,14.91,14.91,0,0,1,4.43-4.23,16.46,16.46,0,0,1,5-2.07,18.49,18.49,0,0,1,3.48-.54h33.36a4,4,0,0,1,3.13,1.35A4.56,4.56,0,0,1,118,159v16.38a4.47,4.47,0,0,1-1.21,3.24,4.17,4.17,0,0,1-3.13,1.26H94.32q-.87,0-.87,1.08V294.54a.78.78,0,0,0,.87.9h19.46a4.08,4.08,0,0,1,3,1.35,4.4,4.4,0,0,1,1.31,3.15v18.54a4.31,4.31,0,0,1-1.31,3.24,4.22,4.22,0,0,1-3,1.26Z"/><path d="M386.74,323.16a4.22,4.22,0,0,1-3.3-1.35,4.57,4.57,0,0,1-1.22-3.15V300.12a4.72,4.72,0,0,1,1.22-3.42,4.37,4.37,0,0,1,3.3-1.26h19.11a1.92,1.92,0,0,0,.61-.18.71.71,0,0,0,.44-.72V181q0-.9-1-.9H386.57a4.45,4.45,0,0,1-3.22-1.26,4.3,4.3,0,0,1-1.3-3.24V165.3a8.23,8.23,0,0,1,.95-3.69,13,13,0,0,1,2.52-3.42,13.88,13.88,0,0,1,3.57-2.52,9.08,9.08,0,0,1,4.08-1h37.36a4.25,4.25,0,0,1,3,1.26,4.3,4.3,0,0,1,1.3,3.24V318.66a4.39,4.39,0,0,1-1.3,3.15,4.11,4.11,0,0,1-3,1.35Z"/><path d="M246.35,267.13q0,11-4.95,18.54a39.58,39.58,0,0,1-12.6,12.24,54.58,54.58,0,0,1-17,6.75,84.49,84.49,0,0,1-18.24,2.07,91.13,91.13,0,0,1-17.64-1.8,57.21,57.21,0,0,1-16.76-6,39.45,39.45,0,0,1-12.78-11.16q-5.11-6.92-5.64-17.19a3.56,3.56,0,0,1,1.13-2.7,3.75,3.75,0,0,1,2.69-1.08h23.11a8.18,8.18,0,0,1,1.82.18,6.08,6.08,0,0,1,1.48.54,15.42,15.42,0,0,1,3,2.52,14.82,14.82,0,0,0,8.25,7.83,31.9,31.9,0,0,0,11.38,2.07,57.23,57.23,0,0,0,6-.36,22.88,22.88,0,0,0,6.26-1.53,13.76,13.76,0,0,0,4.95-3.42,8.27,8.27,0,0,0,2.09-5.85q0-4.86-3.48-7a33.92,33.92,0,0,0-7.3-3.42,66.16,66.16,0,0,0-7-2.07c-2.73-.66-5.88-1.35-9.47-2.07a117.75,117.75,0,0,1-15.47-4.23A49.54,49.54,0,0,1,156.78,243a32.83,32.83,0,0,1-9.38-10.89q-3.57-6.57-3.56-16.11,0-11.88,6.34-20.43a40.45,40.45,0,0,1,16.59-13.05,65.36,65.36,0,0,1,25.54-4.68,75.21,75.21,0,0,1,11.91,1,59.38,59.38,0,0,1,12,3.24A47.12,47.12,0,0,1,227.06,188a37.73,37.73,0,0,1,8.69,8.91q5.91,7.92,6.43,16a4,4,0,0,1-1.13,2.7,3.33,3.33,0,0,1-2.52,1.26H214.21a6.49,6.49,0,0,1-5.74-3.24c-.69-2.52-2.49-4.68-5.38-6.48a22.43,22.43,0,0,0-10.78-2.52,40.12,40.12,0,0,0-5.3.36,13.88,13.88,0,0,0-4.95,1.62,10.54,10.54,0,0,0-3.65,3.33,9.31,9.31,0,0,0-1.39,5.31q0,5,5.22,8.1,5.2,2.88,19.46,5.94,8.16,1.62,16.24,3.87a50.14,50.14,0,0,1,14.34,6.39,32.65,32.65,0,0,1,10.16,10.71Q246.36,256.87,246.35,267.13Z"/><path class="cls-2" d="M308.21,262.81q-.87,0-.87-.72L284.58,184a8.49,8.49,0,0,0-2.09-3.24,6.16,6.16,0,0,0-4.34-1.44H255.56a4.07,4.07,0,0,0-2.78,1.08,3.49,3.49,0,0,0-1,2.52l.34,1.62L287,299.35a8.74,8.74,0,0,0,2.43,3.78,7,7,0,0,0,4.87,1.44h25.85l-12.29-41.8A1.18,1.18,0,0,0,308.21,262.81Z"/><path class="cls-3" d="M363.38,180.37a3.59,3.59,0,0,0-2.52-1.08H338.27a7,7,0,0,0-4,1.17,6.14,6.14,0,0,0-2.43,3.51L308.9,262.09q0,.72-.69.72a1.18,1.18,0,0,1-.34,0l12.29,41.8h1.95a7,7,0,0,0,4.86-1.44,8.57,8.57,0,0,0,2.26-3.78l35.1-114.84a4.55,4.55,0,0,0,.17-1.62A3.38,3.38,0,0,0,363.38,180.37Z"/><path class="cls-4" d="M214.35,259.13q0-10.26-3.93-16.83a32.89,32.89,0,0,0-10.24-10.71,50.58,50.58,0,0,0-14.43-6.39q-8.13-2.25-16.35-3.87-14.35-3.06-19.59-5.94c-3.19-1.85-4.91-4.27-5.19-7.22a38.82,38.82,0,0,0-.78,7.84q0,9.54,3.56,16.11A32.83,32.83,0,0,0,156.78,243a49.54,49.54,0,0,0,13.29,6.93,117.75,117.75,0,0,0,15.47,4.23c3.59.72,6.74,1.41,9.47,2.07a66.16,66.16,0,0,1,7,2.07,33.92,33.92,0,0,1,7.3,3.42q3.48,2.16,3.48,7a10.41,10.41,0,0,1-.22,2.14A37.47,37.47,0,0,0,214.35,259.13Z"/><path class="cls-5" d="M242.44,250.3a32.65,32.65,0,0,0-10.16-10.71,50.14,50.14,0,0,0-14.34-6.39q-8.07-2.25-16.24-3.87a123.7,123.7,0,0,1-15-4c15.6,8.37,26.35,25.42,26.35,42.19,0,21-16.84,34.43-39,37,.62.14,1.24.28,1.87.4a91.13,91.13,0,0,0,17.64,1.8,84.49,84.49,0,0,0,18.24-2.07,54.58,54.58,0,0,0,17-6.75,39.58,39.58,0,0,0,12.6-12.24q4.95-7.56,4.95-18.54Q246.35,256.87,242.44,250.3Z"/><path class="cls-6" d="M208.51,213.73a6.49,6.49,0,0,0,5.7,3.18h24.32a3.33,3.33,0,0,0,2.52-1.26,4,4,0,0,0,1.13-2.7q-.52-8.1-6.43-16a37.73,37.73,0,0,0-8.69-8.91,47.12,47.12,0,0,0-10.85-5.94,59.38,59.38,0,0,0-12-3.24,75.21,75.21,0,0,0-11.91-1,65.36,65.36,0,0,0-25.54,4.68c-.38.17-.75.36-1.13.54C186.36,184.07,203.5,196.77,208.51,213.73Z"/></g></svg>