<svg xmlns="http://www.w3.org/2000/svg" xmlns:xlink="http://www.w3.org/1999/xlink" width="250" height="250" viewBox="0 0 250 250"><defs><radialGradient id="aef57b21-b41f-4c3a-8173-f16e83cbbf14" cx="125.79" cy="26.6" r="97.53" gradientUnits="userSpaceOnUse"><stop offset="0" stop-color="#505050"/><stop offset="0.01" stop-color="#4e4e4e"/><stop offset="0.29" stop-color="#2c2c2c"/><stop offset="0.56" stop-color="#141414"/><stop offset="0.8" stop-color="#050505"/><stop offset="1"/></radialGradient></defs><title>Монтажная область 2</title><g id="a066e4dd-cd25-446f-8220-923e8bd9b4c9" data-name="Слой 2"><rect width="250" height="250" style="fill:#fff"/><rect x="14.92" y="52.08" width="220.15" height="145.84" style="fill:url(#aef57b21-b41f-4c3a-8173-f16e83cbbf14)"/><path d="M23.7,120.47,71.49,95.85V103L31.22,123.14v.21l40.27,20.19v7.1L23.7,126Z" style="fill:#fff"/><path d="M87.66,141.38a23.78,23.78,0,0,0,12,3.6c6.59,0,9.68-3.3,9.68-7.42,0-4.32-2.57-6.69-9.27-9.16-9-3.2-13.18-8.14-13.18-14.11,0-8,6.49-14.63,17.2-14.63a24.86,24.86,0,0,1,12.26,3.09L114,109.34a19.47,19.47,0,0,0-10.2-2.88c-5.35,0-8.34,3.09-8.34,6.8,0,4.12,3,6,9.48,8.44,8.65,3.3,13.08,7.62,13.08,15,0,8.75-6.8,14.93-18.64,14.93a28.43,28.43,0,0,1-14-3.39Z" style="fill:#fff"/><path d="M133.19,100.79l9.78,28a127.54,127.54,0,0,1,4,12.77h.31c1.13-4.12,2.57-8.24,4.22-12.77l9.68-28h9.48l-19.57,49.85h-8.65l-19-49.85Z" style="fill:#fff"/><path d="M226.3,126.13l-47.79,24.51v-7.1l40.58-20.19v-.21L178.51,103V95.85l47.79,24.51Z" style="fill:#fff"/></g></svg>