<svg id="e2670f6e-f103-4890-9555-990f620a13bd" data-name="Слой 1" xmlns="http://www.w3.org/2000/svg" xmlns:xlink="http://www.w3.org/1999/xlink" viewBox="0 0 247.41 246.43"><defs><radialGradient id="b511bfbc-fad4-4e57-9724-412697b47727" cx="125.43" cy="125.46" r="120.75" gradientUnits="userSpaceOnUse"><stop offset="0" stop-color="#ffd961"/><stop offset="0.21" stop-color="#fed65d"/><stop offset="0.41" stop-color="#fbcb52"/><stop offset="0.61" stop-color="#f5b93f"/><stop offset="0.8" stop-color="#eea025"/><stop offset="0.99" stop-color="#e48103"/><stop offset="1" stop-color="#e37e00"/></radialGradient><radialGradient id="a1b5bbab-3c54-42ad-8592-e0656156c3f9" cx="107.28" cy="107.62" r="51.75" gradientUnits="userSpaceOnUse"><stop offset="0" stop-color="#333"/><stop offset="0.29" stop-color="#2f2f2f"/><stop offset="0.56" stop-color="#242424"/><stop offset="0.82" stop-color="#111"/><stop offset="1"/></radialGradient><radialGradient id="b199f913-50af-4d3a-906c-9d750667c0fe" cx="127.36" cy="134.83" r="33.13" gradientUnits="userSpaceOnUse"><stop offset="0" stop-color="#505050"/><stop offset="1"/></radialGradient></defs><title>Безымянный-1</title><path d="M85.83,162.59H4.68l3,3V5.21l-3,3H165l-3-3V85.38a3,3,0,0,0,3,3h81.15l-3-3V245.72l3-3H85.83l3,3V165.55c0-3.81-5.93-3.82-5.93,0v80.17a3,3,0,0,0,3,3H246.17a3,3,0,0,0,3-3V85.38a3,3,0,0,0-3-3H165l3,3V5.21a3,3,0,0,0-3-3H4.68a3,3,0,0,0-3,3V165.55a3,3,0,0,0,3,3H85.83C89.64,168.51,89.65,162.59,85.83,162.59Z" transform="translate(-1.72 -2.25)" style="fill:url(#b511bfbc-fad4-4e57-9724-412697b47727)"/><path d="M85.74,79.22,74.82,72.59Q64.56,66.32,60.21,60.25a23.35,23.35,0,0,1-4.35-14q0-11.85,8.23-19.24t21.36-7.4a40.37,40.37,0,0,1,23,7.06V43Q97.66,32.56,85.16,32.57q-7,0-11.56,3.25a9.89,9.89,0,0,0-4.52,8.33,12.87,12.87,0,0,0,3.33,8.45q3.33,3.93,10.72,8.26l11,6.49q18.35,11,18.35,27.91,0,12.06-8.08,19.6t-21,7.54a44.15,44.15,0,0,1-27.08-9.13V95q11.64,14.73,26.93,14.73A16.93,16.93,0,0,0,94.46,106,11.79,11.79,0,0,0,99,96.6Q99,87.44,85.74,79.22Z" transform="translate(-1.72 -2.25)" style="fill:url(#a1b5bbab-3c54-42ad-8592-e0656156c3f9)"/><path d="M194.84,128.85h14.33l-42.5,100.94h-3.26L120.1,128.85h14.48l30.23,70.58Z" transform="translate(-1.72 -2.25)" style="fill:url(#b199f913-50af-4d3a-906c-9d750667c0fe)"/></svg>